<?xml version="1.0" encoding="UTF-8"?>
<svg version="1.1" xmlns="http://www.w3.org/2000/svg" width="117" height="120">
<path d="M0 0 C2.6480982 1.2175495 5.01663856 2.44918615 7.5 3.9375 C8.19270996 4.34210449 8.88541992 4.74670898 9.59912109 5.16357422 C11.74288687 6.42619316 13.87223267 7.71063798 16 9 C16.66290039 9.39493652 17.32580078 9.78987305 18.00878906 10.19677734 C34.31848425 19.95545276 34.31848425 19.95545276 37 28 C37.22757756 32.23604588 37.22828166 36.47239111 37.24023438 40.71411133 C37.24991783 42.79484373 37.28094366 44.87457832 37.3125 46.95507812 C37.31903307 48.28905667 37.32428235 49.62304224 37.328125 50.95703125 C37.34214355 52.76651245 37.34214355 52.76651245 37.35644531 54.61254883 C36.65120047 61.31479006 33.42706737 65.05143872 28.45214844 69.18847656 C23.75447893 72.65887758 18.70224759 75.50258852 13.625 78.375 C11.98724609 79.31666016 11.98724609 79.31666016 10.31640625 80.27734375 C-0.56838071 86.52227109 -0.56838071 86.52227109 -6 86 C-11.57894737 82.84210526 -11.57894737 82.84210526 -13 80 C-13.11794072 77.68855595 -13.16988925 75.3736631 -13.19287109 73.05932617 C-13.20104858 72.34530136 -13.20922607 71.63127655 -13.21765137 70.89561462 C-13.24250302 68.52807455 -13.2590208 66.16059443 -13.2734375 63.79296875 C-13.27876118 62.98463404 -13.28408485 62.17629932 -13.28956985 61.34346962 C-13.31630064 57.06484551 -13.3356756 52.78625057 -13.35009766 48.50756836 C-13.36674436 44.08878231 -13.41152169 39.67074228 -13.4624691 35.25223827 C-13.49613005 31.85414272 -13.50767375 28.4562245 -13.51332474 25.05797768 C-13.52004062 23.42926648 -13.53527165 21.80056709 -13.55921555 20.17201805 C-13.59084751 17.89034676 -13.59090812 15.61069054 -13.58349609 13.32885742 C-13.59158295 12.03139084 -13.5996698 10.73392426 -13.60800171 9.3971405 C-12.84515763 5.13483585 -11.31095336 3.6917671 -8 1 C-5.1161943 -0.44190285 -3.21927205 -0.29710571 0 0 Z " fill="#FA7A6F" transform="translate(13,17)"/>
<path d="M0 0 C0.82260315 -0.00807175 1.6452063 -0.01614349 2.49273682 -0.02445984 C4.23439435 -0.03828595 5.97607881 -0.0490147 7.71777344 -0.05688477 C9.49259418 -0.06839484 11.26738058 -0.08883134 13.04199219 -0.1184082 C15.61156653 -0.16123444 18.18011236 -0.17727519 20.75 -0.1875 C21.92849518 -0.21376213 21.92849518 -0.21376213 23.13079834 -0.24055481 C29.76467948 -0.21469754 33.66059414 1.75098483 38.79638672 6.03759766 C39.38178223 6.63233887 39.96717773 7.22708008 40.5703125 7.83984375 C41.54484375 8.82210937 41.54484375 8.82210937 42.5390625 9.82421875 C43.19132812 10.49710938 43.84359375 11.17 44.515625 11.86328125 C45.19109375 12.54390625 45.8665625 13.22453125 46.5625 13.92578125 C52.5630354 20.02271079 52.5630354 20.02271079 52.828125 24.17578125 C52.640625 27.23828125 52.640625 27.23828125 50.640625 30.23828125 C47.75697217 30.54565361 45.0866275 30.65799938 42.19946289 30.64233398 C41.32616837 30.64919724 40.45287384 30.65606049 39.55311584 30.66313171 C36.65634053 30.68148503 33.76010242 30.67755003 30.86328125 30.671875 C28.85550255 30.67643285 26.84772541 30.68173722 24.83995056 30.6877594 C20.62736686 30.69670738 16.41497255 30.69424839 12.20239258 30.68432617 C6.79702312 30.67283685 1.39230695 30.69303898 -4.01297665 30.72224331 C-8.16077343 30.74056745 -12.30841261 30.74032038 -16.4562397 30.73460579 C-18.44939655 30.7344521 -20.44256377 30.7405358 -22.4356823 30.75289726 C-25.22048073 30.7677334 -28.00405878 30.75718476 -30.78881836 30.73999023 C-32.03027618 30.75449219 -32.03027618 30.75449219 -33.29681396 30.76928711 C-38.85052915 30.69728256 -38.85052915 30.69728256 -41.39967346 28.39784241 C-42.78368712 25.2834761 -42.36944772 23.45176155 -41.359375 20.23828125 C-39.77734375 18.54296875 -39.77734375 18.54296875 -37.546875 17.11328125 C-36.66257812 16.5409375 -35.77828125 15.96859375 -34.8671875 15.37890625 C-33.69947256 14.66282119 -32.52996224 13.94966126 -31.359375 13.23828125 C-30.57272461 12.75423828 -29.78607422 12.27019531 -28.97558594 11.77148438 C-24.55850228 9.05909583 -20.12753242 6.36997558 -15.67578125 3.71484375 C-14.91724854 3.26189941 -14.15871582 2.80895508 -13.37719727 2.34228516 C-9.00561897 -0.0495209 -4.84938346 0.04512957 0 0 Z " fill="#6650F5" transform="translate(57.359375,89.76171875)"/>
<path d="M0 0 C0.83123383 0.00247742 1.66246765 0.00495483 2.51889038 0.00750732 C3.3937912 0.00239639 4.26869202 -0.00271454 5.17010498 -0.00798035 C8.07159197 -0.02191805 10.97284258 -0.02091661 13.87435913 -0.01861572 C15.88453256 -0.02250005 17.89470517 -0.02683417 19.90487671 -0.03160095 C24.12161925 -0.03907193 28.33827808 -0.03876531 32.55502319 -0.0335083 C37.96934555 -0.0277092 43.38332632 -0.04465111 48.79759216 -0.06785297 C52.94961565 -0.08255507 57.10155617 -0.08346689 61.25360107 -0.08034325 C63.2503731 -0.08085813 65.24714957 -0.08612692 67.24389648 -0.09615517 C70.03110227 -0.10843567 72.8176336 -0.10177895 75.60482788 -0.09014893 C76.43606171 -0.09779266 77.26729553 -0.1054364 78.12371826 -0.11331177 C80.4180603 -0.09205627 80.4180603 -0.09205627 84.06185913 0.28216553 C86.47018007 3.89464693 86.78546768 5.02091521 86.06185913 9.28216553 C84.06250822 12.27154873 81.58537634 14.73175471 79.06185913 17.28216553 C78.24330444 18.14970459 77.42474976 19.01724365 76.58139038 19.91107178 C69.78034483 26.97963198 64.87397306 30.705187 54.79623413 30.92669678 C54.00940247 30.95020203 53.2225708 30.97370728 52.41189575 30.9979248 C49.87809927 31.05717555 47.34630333 31.08248185 44.81185913 31.09466553 C43.52130615 31.10310989 43.52130615 31.10310989 42.2046814 31.11172485 C29.22097728 31.11309137 19.32716864 29.98257822 8.87045288 21.67669678 C6.97100102 20.21210863 5.01804868 18.9635797 2.96810913 17.71966553 C-6.46457528 11.99251391 -6.46457528 11.99251391 -8.93814087 8.28216553 C-8.37870012 1.42901637 -6.83879269 0.06399344 0 0 Z " fill="#6650F5" transform="translate(23.938140869140625,-0.28216552734375)"/>
<path d="M0 0 C4.61581142 2.18643699 6.72864085 4.49599804 9 9 C9.82885269 14.54808604 9.7240695 19.47140883 7.3125 24.5625 C4.21064779 27.8320199 1.61649202 29.75850523 -2.90234375 30.43359375 C-9.05071801 30.44150672 -13.31314296 30.4465054 -18 26 C-21.88937897 20.55860924 -21.79042609 15.48149391 -21 9 C-16.63929544 -0.20593186 -9.3488659 -1.1401056 0 0 Z " fill="#FA7F74" transform="translate(77,45)"/>
<path d="M0 0 C0.66 0.33 1.32 0.66 2 1 C-0.31 3.31 -2.62 5.62 -5 8 C-5 5 -5 5 -2.5 2.3125 C-1.675 1.549375 -0.85 0.78625 0 0 Z " fill="#FCB5AF" transform="translate(63,46)"/>
</svg>
